<mxfile host="app.diagrams.net" modified="2023-01-10T10:14:12.063Z" agent="5.0 (Macintosh; Intel Mac OS X 10_15_7) AppleWebKit/537.36 (KHTML, like Gecko) Chrome/108.0.0.0 Safari/537.36" version="20.8.1" etag="MDuOombfLnvc8_CnQF_b" type="github">
  <diagram id="L1Md74T0iGSnTZSqdi6X" name="第 1 页">
    <mxGraphModel dx="3124" dy="1493" grid="1" gridSize="10" guides="1" tooltips="1" connect="1" arrows="1" fold="1" page="1" pageScale="1" pageWidth="827" pageHeight="1169" math="0" shadow="0">
      <root>
        <mxCell id="0" />
        <mxCell id="1" parent="0" />
        <mxCell id="F1WHuFg56HNxDudnOaOx-3" value="mall" style="shape=umlLifeline;perimeter=lifelinePerimeter;whiteSpace=wrap;html=1;container=1;collapsible=0;recursiveResize=0;outlineConnect=0;" vertex="1" parent="1">
          <mxGeometry x="60" y="90" width="150" height="330" as="geometry" />
        </mxCell>
        <mxCell id="F1WHuFg56HNxDudnOaOx-5" value="" style="html=1;points=[];perimeter=orthogonalPerimeter;" vertex="1" parent="F1WHuFg56HNxDudnOaOx-3">
          <mxGeometry x="70" y="60" width="10" height="40" as="geometry" />
        </mxCell>
        <mxCell id="F1WHuFg56HNxDudnOaOx-4" value="order" style="shape=umlLifeline;perimeter=lifelinePerimeter;whiteSpace=wrap;html=1;container=1;collapsible=0;recursiveResize=0;outlineConnect=0;" vertex="1" parent="1">
          <mxGeometry x="400" y="80" width="150" height="330" as="geometry" />
        </mxCell>
        <mxCell id="F1WHuFg56HNxDudnOaOx-6" value="" style="html=1;points=[];perimeter=orthogonalPerimeter;" vertex="1" parent="F1WHuFg56HNxDudnOaOx-4">
          <mxGeometry x="70" y="80" width="10" height="50" as="geometry" />
        </mxCell>
        <mxCell id="F1WHuFg56HNxDudnOaOx-60" value="" style="html=1;points=[];perimeter=orthogonalPerimeter;" vertex="1" parent="F1WHuFg56HNxDudnOaOx-4">
          <mxGeometry x="70" y="150" width="10" height="80" as="geometry" />
        </mxCell>
        <mxCell id="F1WHuFg56HNxDudnOaOx-7" style="edgeStyle=orthogonalEdgeStyle;rounded=0;orthogonalLoop=1;jettySize=auto;html=1;entryX=-0.2;entryY=0.05;entryDx=0;entryDy=0;entryPerimeter=0;" edge="1" parent="1" source="F1WHuFg56HNxDudnOaOx-5" target="F1WHuFg56HNxDudnOaOx-6">
          <mxGeometry relative="1" as="geometry">
            <Array as="points">
              <mxPoint x="270" y="162" />
              <mxPoint x="270" y="162" />
            </Array>
          </mxGeometry>
        </mxCell>
        <mxCell id="F1WHuFg56HNxDudnOaOx-8" value="下单（createOrder）" style="edgeLabel;html=1;align=center;verticalAlign=middle;resizable=0;points=[];" vertex="1" connectable="0" parent="F1WHuFg56HNxDudnOaOx-7">
          <mxGeometry x="-0.7988" y="-1" relative="1" as="geometry">
            <mxPoint x="47" y="-3" as="offset" />
          </mxGeometry>
        </mxCell>
        <mxCell id="F1WHuFg56HNxDudnOaOx-9" value="参数组装" style="edgeLabel;html=1;align=center;verticalAlign=middle;resizable=0;points=[];" vertex="1" connectable="0" parent="F1WHuFg56HNxDudnOaOx-7">
          <mxGeometry x="0.2805" relative="1" as="geometry">
            <mxPoint as="offset" />
          </mxGeometry>
        </mxCell>
        <mxCell id="F1WHuFg56HNxDudnOaOx-47" value="goods" style="shape=umlLifeline;perimeter=lifelinePerimeter;whiteSpace=wrap;html=1;container=1;collapsible=0;recursiveResize=0;outlineConnect=0;" vertex="1" parent="1">
          <mxGeometry x="659.23" y="80" width="150" height="330" as="geometry" />
        </mxCell>
        <mxCell id="F1WHuFg56HNxDudnOaOx-48" value="" style="html=1;points=[];perimeter=orthogonalPerimeter;" vertex="1" parent="F1WHuFg56HNxDudnOaOx-47">
          <mxGeometry x="70" y="80" width="10" height="70" as="geometry" />
        </mxCell>
        <mxCell id="F1WHuFg56HNxDudnOaOx-52" style="edgeStyle=none;rounded=0;orthogonalLoop=1;jettySize=auto;html=1;startArrow=none;startFill=0;entryX=0.986;entryY=0.186;entryDx=0;entryDy=0;entryPerimeter=0;" edge="1" parent="1" source="F1WHuFg56HNxDudnOaOx-48" target="F1WHuFg56HNxDudnOaOx-6">
          <mxGeometry relative="1" as="geometry" />
        </mxCell>
        <mxCell id="F1WHuFg56HNxDudnOaOx-54" value="店铺商品信息查询" style="edgeLabel;html=1;align=center;verticalAlign=middle;resizable=0;points=[];" vertex="1" connectable="0" parent="F1WHuFg56HNxDudnOaOx-52">
          <mxGeometry x="0.4317" y="1" relative="1" as="geometry">
            <mxPoint x="29" y="2" as="offset" />
          </mxGeometry>
        </mxCell>
        <mxCell id="F1WHuFg56HNxDudnOaOx-55" style="edgeStyle=none;rounded=0;orthogonalLoop=1;jettySize=auto;html=1;startArrow=none;startFill=0;" edge="1" parent="1" source="F1WHuFg56HNxDudnOaOx-6" target="F1WHuFg56HNxDudnOaOx-47">
          <mxGeometry relative="1" as="geometry">
            <Array as="points">
              <mxPoint x="610" y="210" />
            </Array>
          </mxGeometry>
        </mxCell>
        <mxCell id="F1WHuFg56HNxDudnOaOx-56" value="库存扣减" style="edgeLabel;html=1;align=center;verticalAlign=middle;resizable=0;points=[];" vertex="1" connectable="0" parent="F1WHuFg56HNxDudnOaOx-55">
          <mxGeometry x="-0.2963" relative="1" as="geometry">
            <mxPoint as="offset" />
          </mxGeometry>
        </mxCell>
        <mxCell id="F1WHuFg56HNxDudnOaOx-57" value="MQ" style="shape=umlLifeline;perimeter=lifelinePerimeter;whiteSpace=wrap;html=1;container=1;collapsible=0;recursiveResize=0;outlineConnect=0;" vertex="1" parent="1">
          <mxGeometry x="940" y="70" width="150" height="330" as="geometry" />
        </mxCell>
        <mxCell id="F1WHuFg56HNxDudnOaOx-58" value="" style="html=1;points=[];perimeter=orthogonalPerimeter;" vertex="1" parent="F1WHuFg56HNxDudnOaOx-57">
          <mxGeometry x="70" y="100" width="10" height="50" as="geometry" />
        </mxCell>
        <mxCell id="F1WHuFg56HNxDudnOaOx-59" value="发送库存扣减MQ消息" style="edgeStyle=none;rounded=0;orthogonalLoop=1;jettySize=auto;html=1;startArrow=none;startFill=0;" edge="1" parent="1" source="F1WHuFg56HNxDudnOaOx-48" target="F1WHuFg56HNxDudnOaOx-57">
          <mxGeometry relative="1" as="geometry" />
        </mxCell>
      </root>
    </mxGraphModel>
  </diagram>
</mxfile>
